<?xml version="1.0" encoding="UTF-8" standalone="no"?>
<!-- Creator: CorelDRAW -->
<svg
   xmlns:dc="http://purl.org/dc/elements/1.1/"
   xmlns:cc="http://web.resource.org/cc/"
   xmlns:rdf="http://www.w3.org/1999/02/22-rdf-syntax-ns#"
   xmlns:svg="http://www.w3.org/2000/svg"
   xmlns="http://www.w3.org/2000/svg"
   xmlns:sodipodi="http://sodipodi.sourceforge.net/DTD/sodipodi-0.dtd"
   xmlns:inkscape="http://www.inkscape.org/namespaces/inkscape"
   xml:space="preserve"
   width="744.09448"
   height="838.82343"
   style="shape-rendering:geometricPrecision; text-rendering:geometricPrecision; image-rendering:optimizeQuality; fill-rule:evenodd; clip-rule:evenodd"
   viewBox="0 0 210 297"
   id="svg2"
   sodipodi:version="0.32"
   inkscape:version="0.45.1"
   sodipodi:docname="POL Gryfino COA.svg"
   inkscape:output_extension="org.inkscape.output.svg.inkscape"
   sodipodi:docbase="C:\Users\Mistrz\Desktop"
   version="1.0"><metadata
   id="metadata23"><rdf:RDF><cc:Work
       rdf:about=""><dc:format>image/svg+xml</dc:format><dc:type
         rdf:resource="http://purl.org/dc/dcmitype/StillImage" /></cc:Work></rdf:RDF></metadata><sodipodi:namedview
   inkscape:window-height="480"
   inkscape:window-width="640"
   inkscape:pageshadow="2"
   inkscape:pageopacity="0.0"
   guidetolerance="10.0"
   gridtolerance="10.0"
   objecttolerance="10.0"
   borderopacity="1.0"
   bordercolor="#666666"
   pagecolor="#ffffff"
   id="base" />
 <defs
   id="defs4">
  <style
   type="text/css"
   id="style6">
   
    .fil4 {fill:#00923F}
    .fil0 {fill:#0A0B0C}
    .fil3 {fill:#DA251D}
    .fil2 {fill:#FFF500}
    .fil1 {fill:white}
   
  </style>
 </defs>
 <g
   id="Warstwa_x0020_1"
   transform="matrix(1.2544101,0,0,1.2544101,-26.729786,-37.761562)">
  <metadata
   id="CorelCorpID_0Corel-Layer" />
  <g
   id="_75084280">
   <path
   id="_75060496"
   class="fil0"
   d="M 0,30.1331 L 210,30.1331 L 210,186.4501 C 205.638,227.0127 190.4231,240.3705 157.9687,247.3501 C 144.9735,250.1448 114.1119,249.4569 108.7693,264.191 C 107.6084,267.5152 105.0712,267.6808 103.2223,265.0346 C 94.6327,247.9952 63.1541,250.1643 45.8312,245.4656 C 21.1877,238.7809 3.1636,223.0146 1.4210855e-014,186.4501 L 1.4210855e-014,30.1331 L 0,30.1331 z "
   style="fill:#0a0b0c" />
   <path
   id="_75060424"
   class="fil1"
   d="M 4.3003,34.1846 L 206.0583,34.1846 L 206.0583,184.6906 C 202.9877,222.2305 189.5546,235.657 160.7571,242.5357 C 144.7446,246.3605 113.8723,243.7518 105.5626,261.6081 C 96.7267,244.0424 62.6183,246.1667 44.7398,240.6845 C 22.5143,233.869 6.7771,218.4445 4.3006,184.6906 L 4.3006,34.1846 L 4.3003,34.1846 z "
   style="fill:#ffffff" />
   <polygon
   id="_75060352"
   class="fil0"
   points="161.424,146.939 170.111,160.319 186.675,160.361 177.677,172.986 187.034,185.763 170.354,185.736 161.612,199.342 152.792,185.962 135.103,186.018 144.295,173.295 134.937,160.518 151.956,160.474 161.424,146.939 "
   style="fill:#0a0b0c" />
   <path
   id="_75060280"
   class="fil0"
   d="M 151.994,45.3592 C 150.9189,49.526 153.471,56.3909 152.9186,64.0831 C 147.5634,57.6107 147.1818,52.9875 136.8531,50.2135 C 136.3055,51.5345 140.6945,53.2603 140.5516,58.3041 C 136.6988,54.1006 132.8462,51.9039 128.9937,51.3693 C 130.7623,56.3178 138.2448,62.3472 130.6118,74.4852 C 128.0322,81.2579 126.0805,88.1664 131.5364,96.6765 C 132.5767,97.9324 132.5383,98.9728 131.4208,99.7971 C 124.0398,104.308 116.7705,108.2243 110.0386,109.2747 C 110.1879,104.8681 109.9932,100.2121 109.4954,95.59 L 112.2346,97.37 C 114.0727,93.055 113.1593,88.74 113.6216,84.4251 L 116.2799,85.3497 C 117.0891,81.8129 116.8195,77.8447 115.4708,73.445 L 118.2448,73.7917 C 119.0345,69.3364 118.187,66.0506 117.4357,62.6961 C 121.1788,60.8427 124.6989,58.4318 127.1444,53.3342 C 125.0369,53.4035 123.0913,54.1203 120.8219,53.5423 C 123.0506,51.5254 125.1313,49.0636 127.1444,46.3994 C 128.05,45.0932 127.499,44.5962 126.2197,44.6657 C 120.0728,45.1682 114.0616,46.158 108.9984,50.5603 C 107.9965,51.1653 106.9949,51.3657 105.9933,50.6758 C 100.1379,46.0698 92.1077,45.6248 86.576,49.0577 C 84.3633,48.6691 82.2589,48.5511 80.9126,50.3291 C 80.1961,51.2846 79.1558,51.5928 77.7919,51.2537 C 71.4108,50.1426 67.808,58.6351 73.0532,63.6207 C 77.6076,59.2855 78.8166,59.1586 82.993,61.5403 C 80.6713,65.0848 72.662,64.6488 63.8404,63.644 C 72.3976,70.5551 86.2419,67.5797 89.3499,66.857 C 90.8797,67.5081 90.7101,68.402 89.5694,68.5676 C 85.7838,67.9348 82.8479,68.0579 81.0049,70.8792 C 85.9408,71.8384 86.1829,73.2832 88.772,74.4852 C 89.3544,78.4557 87.7787,81.1447 85.3392,83.6044 C 80.8179,86.2867 73.65,87.2568 70.8571,91.9377 C 69.2764,94.7334 69.5923,95.917 64.6923,96.3419 C 59.4337,87.9226 56.0717,84.4346 51.7613,78.481 C 48.2235,73.1297 45.4444,70.5285 45.6999,64.4185 C 47.7438,60.4645 47.2589,57.0162 44.2452,54.0737 C 41.9248,50.2783 39.2326,49.4561 36.4057,49.7095 C 37.0254,51.1373 37.9295,52.1858 37.9801,53.9929 C 36.5789,56.121 36.7428,58.2492 37.618,60.3776 C 38.6889,65.1734 35.9981,67.5667 34.951,62.7213 C 33.7515,58.615 34.0102,57.2319 33.1363,55.6224 C 31.6799,52.9401 29.4484,52.2626 26.3034,53.1039 L 25.1619,53.0952 C 22.1911,53.0572 18.6767,54.2207 15.9586,55.4476 L 23.4747,58.6383 C 23.59,59.9993 25.7915,61.0758 26.95,62.4368 C 27.6019,63.0166 27.5901,64.1653 26.0609,63.9864 C 24.0405,64.2112 21.5458,63.2981 19.9995,64.661 C 14.1833,66.6878 11.817,69.177 15.8638,71.9627 C 20.1187,69.2412 22.9507,68.1641 22.7474,73.2838 C 30.8389,74.3305 35.4594,75.842 36.6616,78.6841 C 37.2913,80.1726 38.785,81.6381 35.7452,83.9486 C 34.6119,85.1293 35.1855,86.0255 35.7592,87.7751 L 35.5976,89.0682 L 30.1827,93.2708 C 28.6363,94.162 30.2193,94.6738 31.2333,94.8064 C 34.3581,95.4767 37.3327,94.7956 40.2042,93.19 C 44.0621,91.8215 46.0708,89.631 45.3766,86.2396 C 44.8723,84.4248 46.549,84.6016 46.993,85.9163 C 48.7171,90.1997 50.7258,91.8278 52.1654,98.7665 L 55.0123,107.0295 C 56.7045,111.3438 54.1883,112.4698 53.7762,115.19 C 56.6283,115.4494 58.6513,112.8394 60.8657,112.8437 C 58.0241,117.7951 59.9649,123.2566 57.5057,129.2283 L 65.0056,123.0528 C 62.0233,129.5057 63.8872,135.5123 59.1833,141.2638 C 60.6385,141.8366 62.2212,140.4327 63.3575,141.6431 C 60.5331,143.861 57.2924,143.7468 54.1826,144.2795 C 50.3013,144.9444 43.9596,146.9114 42.7774,146.1313 C 41.3124,144.1065 43.6096,140.1051 42.3997,136.9964 C 42.0346,133.7902 39.6818,132.455 36.4253,131.9703 C 33.4855,129.2424 30.5458,128.4327 27.606,128.9357 C 29.0284,130.5794 30.8973,132.2232 31.8734,133.8669 C 30.0526,137.8575 34.1618,141.4654 33.1062,143.1604 C 30.5771,144.1778 29.4397,139.4496 26.5615,137.408 C 24.5282,135.9656 19.9401,135.555 17.1745,137.6602 C 15.4545,138.5001 13.9964,139.6024 12.7174,140.8845 C 14.2936,142.1554 16.8262,142.2786 18.9763,142.4018 C 20.4783,143.4383 21.3002,145.2401 21.4419,147.8072 C 17.7994,147.9077 17.1823,150.241 16.89,150.178 C 12.3534,153.0382 10.9626,156.5785 12.7174,160.7991 C 14.5378,159.382 16.5707,158.3899 19.0711,158.3335 C 22.5322,158.7417 23.0076,161.2831 30.3561,159.0921 C 34.4294,158.0146 37.9182,157.9468 40.1205,160.101 C 41.095,161.8691 39.9653,165.04 40.5571,168.0197 C 43.7952,167.0443 46.3265,165.5643 48.3741,163.7389 C 51.7792,162.3905 49.8282,158.4915 50.5552,155.8679 C 58.6721,154.3065 68.4468,155.6782 77.3926,155.5834 C 79.1629,156.7779 80.6781,156.0808 82.4481,153.8748 C 84.8724,154.7288 86.9139,158.0696 89.7207,156.4369 C 91.4665,155.4651 93.2121,155.3221 94.958,156.3909 C 97.2746,157.5917 99.8677,158.3781 102.8647,158.5589 L 128.3067,162.7036 C 130.8279,155.6841 134.712,150.296 140.8045,147.0176 C 134.2368,143.1917 127.8603,139.6209 122.6317,133.2445 C 132.3183,140.3808 141.7023,142.368 150.8792,140.8324 L 144.5028,133.3082 C 143.3551,132.0541 144.0565,131.5653 145.6506,132.2243 C 152.0256,134.2342 158.5959,135.5279 165.4813,135.6675 C 170.1785,134.1372 171.0498,132.3518 168.0956,130.3113 C 163.5576,127.9678 160.433,125.3216 158.2759,122.4683 C 172.9322,122.0011 180.4562,118.494 184.7381,113.6051 C 180.5721,112.4998 175.1946,112.2235 171.2838,111.182 C 182.0386,105.6665 190.6042,98.9711 194.5578,90.3949 C 195.2166,87.3129 194.5152,86.2713 192.4536,87.2704 C 188.9252,89.0983 185.3969,90.4161 181.8687,91.989 C 186.7536,82.2867 189.2587,76.867 188.2451,61.701 C 186.2896,62.1898 182.7401,71.0317 175.8748,79.555 C 175.811,67.6735 173.9831,58.3851 170.0085,51.945 C 168.9245,50.5209 167.3942,51.4561 167.5217,52.6465 C 167.6758,58.5524 166.7511,64.3816 164.5248,70.1179 C 162.4306,60.6747 158.339,52.2515 151.994,45.3592 L 151.994,45.3592 z "
   style="fill:#0a0b0c" />
   <path
   id="_75060208"
   class="fil2"
   d="M 161.364,150.519 L 168.7909,162.1428 L 183.1633,162.1065 L 175.395,173.0072 L 183.474,184.039 L 169.0106,184.0052 L 161.5257,195.7623 L 153.9117,184.2108 L 138.6138,184.2716 L 146.5756,173.2742 L 138.4968,162.2425 L 153.1899,162.2041 L 161.364,150.519 L 161.364,150.519 z M 41.933,162.1813 C 44.1001,161.8056 45.9205,162.2391 47.3941,163.4816 C 45.4581,164.5218 43.8689,166.2555 41.5862,166.6022 C 40.9216,164.9552 41.8174,163.6549 41.933,162.1813 z M 17.0545,151.3457 C 18.5572,152.9925 18.7883,155.2752 18.4414,157.8471 C 15.6964,157.0958 15.2052,158.7717 13.5871,159.234 C 12.2001,156.1423 13.3559,153.5128 17.0545,151.3457 z M 18.6148,141.4637 C 17.0257,141.7818 15.4366,141.4638 13.8471,140.8569 C 15.0174,139.7517 16.3754,138.9282 18.008,138.5164 C 18.9037,139.4988 19.106,140.4812 18.6148,141.4637 L 18.6148,141.4637 z M 35.3449,132.1884 C 33.4091,130.0933 31.1554,129.4287 28.7569,129.4145 C 30.0861,130.5992 31.4152,131.2638 32.7444,132.9686 C 34.3047,133.2864 35.1716,133.0263 35.3449,132.1884 L 35.3449,132.1884 z M 24.336,53.8255 C 21.9152,54.0923 19.5885,54.6897 17.3145,55.4725 L 22.8623,57.7263 C 25.1744,56.4405 26.1858,55.3425 24.336,53.8255 z M 38.8123,53.9122 C 40.8639,55.2413 42.6842,54.4323 42.0196,52.3518 C 40.8205,51.2538 39.289,50.7048 37.8588,50.5315 C 38.1188,51.6295 38.8123,52.6408 38.8123,53.9122 L 38.8123,53.9122 z M 20.5219,68.6486 C 20.9842,67.0015 20.3196,66.2214 18.268,66.048 C 14.7625,67.3545 14.0974,69.3928 15.5808,70.9024 L 20.5219,68.6486 L 20.5219,68.6486 z M 35.4316,90.4931 C 37.5698,90.1463 38.899,90.9554 39.4191,92.9203 C 35.8576,94.1916 33.0116,94.365 30.8373,93.7871 L 35.4316,90.4931 L 35.4316,90.4931 z M 73.1166,61.8963 C 70.4926,55.6509 71.5499,51.5748 80.7058,52.271 C 83.0573,49.3576 85.5666,49.4674 86.8141,52.3636 C 88.9901,59.5408 89.7466,65.2587 97.3649,65.9685 C 100.7238,70.9383 101.2955,73.2658 96.1617,73.1874 C 92.8163,73.9379 90.7819,74.0901 89.4637,73.7112 C 87.267,73.0798 87.4712,71.4897 84.778,70.3184 C 85.5818,69.1478 87.4424,69.3494 89.7242,69.6568 C 92.3957,70.2998 92.4639,68.9182 91.3491,66.6164 C 88.0201,62.9048 85.0095,61.2506 82.4764,60.1956 C 78.5077,58.5427 78.4169,57.6873 73.1166,61.8963 L 73.1166,61.8963 z "
   style="fill:#fff500" />
   <path
   id="_75060136"
   class="fil3"
   d="M 109.675,51.7156 C 114.2717,48.0753 119.3619,46.286 124.9458,46.3477 C 123.4033,49.8029 120.1949,51.222 117.8194,53.6592 C 116.3078,53.7826 114.9195,54.1528 113.6547,54.7698 C 112.4668,53.3351 111.1094,52.4095 109.675,51.7156 z M 106.8059,58.5644 C 105.4485,60.5079 106.0347,61.2483 108.2867,61.8962 C 115.0738,63.2536 120.2566,61.0324 123.8352,55.2325 C 117.8001,54.3109 112.1004,55.2905 106.8059,58.5644 L 106.8059,58.5644 z M 83.8534,62.3589 C 78.3212,66.8755 73.4434,65.3677 68.49,64.8578 C 73.2276,67.8857 81.2577,68.2619 88.2033,65.6908 C 87.0688,64.475 85.6188,63.3644 83.8534,62.3589 z M 152.1717,88.6726 C 157.9061,82.6756 159.2472,83.7994 156.1949,92.0434 C 166.0917,91.9887 169.0746,93.7334 156.8473,99.4375 C 169.0718,103.0353 169.6021,105.5254 153.0415,106.3966 C 154.5666,108.0753 163.5432,111.4165 162.275,113.0237 C 160.7735,114.9265 149.1043,111.0496 148.2572,112.0508 C 147.496,112.8679 154.7328,118.7284 153.7001,120.5243 C 152.7032,122.2582 145.3604,117.5001 143.6902,116.9537 C 145.9571,121.5833 148.0598,125.0884 147.2361,126.1354 C 146.1767,127.4817 142.454,124.6777 136.7311,122.3905 C 137.1612,126.1753 138.3701,129.0999 137.5499,129.951 C 136.4255,131.1174 133.5235,128.208 128.3585,125.4254 C 129.8387,129.5962 129.1461,130.4155 127.9848,131.1775 C 126.2903,132.2894 123.9855,131.8813 120.2033,128.7962 C 119.3586,128.2454 119.0239,129.0339 119.7732,130.2049 C 121.0913,134.8453 120.338,136.9191 118.353,136.4122 C 116.6014,135.9648 113.9659,133.4828 109.8733,129.3399 C 110.4184,132.8607 113.3495,136.9497 110.4858,140.2432 C 107.7331,139.6094 102.9351,134.9987 101.205,130.8426 C 104.6464,132.4677 107.2949,131.0794 109.2209,126.9477 C 112.7964,129.8977 116.2202,129.0508 120.4012,124.1205 C 125.8973,126.7571 128.3063,126.5526 129.4458,120.0973 C 133.6793,124.7733 136.3978,123.5409 137.601,116.4003 C 141.2844,118.6719 143.6041,117.0045 144.5601,111.3984 C 150.2665,112.1036 153.0932,110.4409 150.3134,103.5694 C 156.3842,103.4806 156.185,99.8119 153.4667,95.7453 C 155.1187,92.8195 155.3687,90.3861 152.1717,88.6726 L 152.1717,88.6726 z M 62.247,99.7637 C 63.4432,98.9301 63.6243,97.9516 62.7906,96.8278 C 55.7591,82.6197 42.8558,74.392 44.3055,63.9895 C 46.4441,60.3651 45.973,57.4656 42.892,55.2907 C 41.6234,56.0881 40.355,56.3056 39.0862,55.9431 C 36.8027,57.1392 39.7386,59.0964 39.0862,64.7507 C 37.2014,67.433 35.4617,67.5055 33.8669,64.9682 C 31.656,61.3074 34.4468,53.7322 26.5816,53.9858 C 26.2375,56.0339 25.6214,57.6289 24.4068,58.2265 C 25.0955,59.5314 27.1978,60.075 28.7563,62.4672 C 29.6624,64.6782 28.8289,65.7294 26.2553,65.6206 C 24.6969,64.8233 23.1384,64.7509 21.5797,65.4031 C 22.1234,66.3457 22.3772,67.288 22.3408,68.2302 C 24.0807,69.3539 24.1533,70.8763 23.8632,72.5797 C 32.9852,72.8014 35.591,74.7288 37.6328,77.4878 C 39.1225,79.5009 39.9085,81.9715 36.694,85.8455 C 37.2378,86.9691 37.3465,88.0929 37.0202,89.2163 C 37.9989,89.5426 38.9776,90.1587 39.9561,91.0648 C 41.9496,91.681 44.5956,89.905 43.9793,86.7154 C 42.602,84.142 46.2266,82.4385 47.3501,84.5406 C 51.2927,90.8062 53.9564,98.137 56.1577,105.8529 C 57.9062,103.3328 59.9181,101.9921 62.247,99.7637 L 62.247,99.7637 z M 75.0778,153.3705 C 73.1206,151.1958 73.338,149.0211 72.4682,146.8464 C 69.3512,149.7828 66.2342,151.4503 63.1169,150.3259 C 61.5584,149.8548 61.1959,148.6224 62.3557,147.2813 C 62.9357,145.8316 64.9292,144.0555 64.0955,142.9319 C 57.6076,146.7376 53.5119,145.3241 45.2841,147.4988 C 41.2423,148.46 40.1915,146.4301 40.4998,143.0406 C 41.9859,138.075 41.1161,134.5231 36.8027,133.0369 C 35.7517,134.0519 34.5557,134.6319 33.2144,134.7767 C 32.0184,136.9877 33.9756,139.4161 34.8455,141.3008 C 35.5342,145.0341 33.7582,145.8679 29.5174,143.8018 C 25.5849,138.2745 23.834,137.3905 19.5388,138.387 C 19.8636,139.4309 20.3039,140.4747 20.1661,141.5183 C 22.2684,143.3668 21.8697,145.8677 23.5369,148.3687 C 22.3408,150.2535 19.7312,149.0936 18.97,150.7609 C 19.6951,152.7 20.0577,154.7296 19.6224,156.9588 C 21.9785,157.7561 21.3985,158.9885 27.0165,158.5899 C 34.1957,156.7689 36.2635,154.1535 42.3483,160.6558 C 44.3056,160.3113 46.2629,160.565 48.22,161.0908 C 48.8724,152.5731 48.9812,153.7329 55.7228,153.4793 L 75.0778,153.3705 L 75.0778,153.3705 z M 121.6329,135.3129 C 126.0263,140.1229 131.7833,143.3423 136.8586,147.357 C 132.5692,150.7277 129.1415,155.0833 126.9732,160.8783 C 115.9139,158.3407 100.0822,157.9619 96.8628,155.3107 C 94.6282,154.8562 93.6435,153.3791 89.8181,154.629 L 89.8181,151.1066 C 91.6708,152.0092 92.5007,153.0255 95.3758,153.8146 C 98.1062,151.8893 95.8369,148.6005 96.7492,147.0162 C 97.9613,148.4174 98.1506,150.1597 100.3852,151.6747 C 104.9018,148.3605 106.5874,143.8156 104.1348,137.4717 C 106.5588,138.8352 107.5057,140.7668 111.4067,141.5622 C 113.755,138.3428 112.9218,136.6005 112.3157,133.9494 C 114.664,135.2751 116.2169,137.964 119.3604,137.9262 C 120.2695,137.9639 121.0271,137.0928 121.6329,135.3129 L 121.6329,135.3129 z M 110.4154,55.8804 L 110.2303,54.0294 C 100.551,48.0754 92.4221,46.7798 87.1852,50.6976 C 89.0362,53.1039 89.4064,56.6208 90.9798,59.9526 C 92.4283,63.4024 95.4213,64.3426 98.8466,64.5801 C 100.9752,67.1561 102.456,71.1512 101.0678,72.956 C 99.6795,74.7607 93.7563,74.7453 90.517,75.4086 C 90.8949,81.4936 87.7638,85.1494 81.7247,86.7923 C 77.2518,87.9498 73.4275,89.7016 71.9197,93.5775 C 70.8231,96.6693 68.1989,97.8942 64.8802,98.2709 C 63.1393,101.9501 59.475,103.1948 57.4783,106.6155 C 56.5709,108.1704 57.961,110.4404 56.3494,112.9295 L 61.5462,111.1136 C 63.3377,110.5137 64.2037,111.5796 63.0334,112.9232 C 58.9608,117.2373 61.1815,120.7183 60.4407,124.4771 L 64.7038,121.618 C 66.6517,120.5228 67.3964,122.019 66.7528,123.8856 C 63.1526,131.407 64.8277,135.7818 62.6158,138.9534 C 67.855,139.9159 68.1581,143.2233 63.5251,148.8754 C 71.7877,149.4316 69.9623,145.4528 72.4868,142.2145 C 73.1817,139.7216 75.2649,140.1903 74.8492,143.0655 C 73.7899,154.7614 82.294,159.2384 80.8334,146.5009 C 81.453,144.071 82.9982,143.8626 83.6178,145.8755 C 84.0616,149.5627 84.992,152.9797 87.6596,155.4317 C 89.0194,150.3898 86.7696,149.1425 86.4634,146.1368 C 86.1686,144.9467 86.9844,143.5716 88.0777,145.0655 C 88.8658,148.4373 91.5416,149.337 94.5265,152.303 C 96.2798,149.7533 94.331,145.9079 94.2333,142.7104 C 93.9213,140.8889 95.6453,139.808 96.6289,141.6886 C 98.478,145.0289 99.2879,148.9585 100.5131,149.3347 C 102.957,150.085 106.9789,140.0809 98.4822,130.3102 C 96.4904,126.7347 98.2007,126.1207 100.5587,128.4684 C 103.4567,131.5551 106.2314,130.1993 108.8824,124.4015 C 113.037,129.8391 116.8985,128.2428 120.5597,121.8343 C 125.6002,127.4705 127.8309,124.842 128.6754,118.1365 C 134.9407,123.0213 135.7147,121.9832 136.5506,113.9113 C 141.0367,117.3587 143.3016,115.9935 143.3452,109.8156 C 151.1373,111.357 152.1886,108.5022 148.6279,102.6398 C 155.141,102.1776 155.8542,101.9313 152.4336,95.7929 C 154.1077,92.8452 154.162,90.5918 150.6525,89.8662 C 154.3513,79.9414 152.1267,77.6981 147.2185,83.322 C 145.607,85.6196 144.4274,84.277 144.0501,79.6642 C 143.7965,74.0456 146.2268,69.0748 145.5104,62.8084 C 145.4069,61.1709 146.2289,61.3843 146.5882,62.8936 C 147.4665,67.452 145.3832,72.7509 145.3361,79.3454 C 144.8145,83.1425 145.8972,83.6077 148.5843,80.7414 C 150.8412,78.5557 152.7123,78.0672 153.735,81.3129 C 158.7834,76.6704 161.536,71.1093 157.9414,63.0097 C 157.3172,61.6451 158.359,61.2062 158.8455,62.5257 C 162.8394,69.8251 160.6708,75.4276 154.0519,83.3135 L 153.1384,86.0623 C 158.6237,81.0785 160.4069,82.5115 158.4881,90.3613 C 162.9703,87.1845 167.1667,82.1083 169.9194,71.5185 C 170.3927,70.1002 171.0512,70.903 170.7842,72.2613 C 169.0888,80.9614 164.8837,86.5728 159.9761,91.3195 C 168.4201,91.4679 168.3206,94.8498 160.1508,99.0994 L 163.3108,100.533 C 171.5692,96.6172 178.8138,85.561 183.9706,74.2059 C 184.5473,73.0182 185.2818,73.4866 184.5968,74.8225 C 180.3285,85.1156 174.586,94.7086 164.8455,101.4235 C 165.6739,102.2557 166.739,102.1415 167.4098,103.7624 C 173.4158,102.3687 179.2772,99.3842 185.0732,95.677 C 186.1395,94.9639 186.8116,95.5125 185.6698,96.6133 C 179.4485,100.7128 173.1321,103.5736 166.7007,104.9392 C 163.4974,107.2567 160.7672,106.5774 157.8006,107.3966 C 167.0455,113.0444 165.9856,115.4324 154.621,114.5608 C 158.9755,116.2562 164.7035,117.3998 172.7123,116.0986 C 174.1747,116.1429 174.0597,116.976 172.3675,117.4148 C 159.7313,118.5348 158.609,116.8159 152.203,115.097 C 157.742,122.3626 154.6187,123.7135 147.8024,120.333 C 151.5795,125.0165 155.8631,129.1469 161.9566,131.3039 C 163.3841,131.6836 163.6287,132.7731 162.4538,132.6798 C 156.4492,130.4365 151.6934,126.6946 147.7921,121.9277 C 150.1315,129.5564 145.8187,128.7974 138.4821,124.2258 C 140.7809,132.0199 137.8339,132.215 131.3771,128.7556 C 133.5169,132.5232 136.8624,135.2459 141.9469,137.1218 C 142.7983,137.6337 142.5982,138.2245 141.2677,137.7902 C 136.6587,136.1029 133.1211,133.5679 130.4578,129.5936 C 130.1507,132.2048 128.0033,133.326 125.3702,133.1989 C 132.6119,138.0821 140.0214,141.2325 147.8947,139.5928 L 141.8003,132.9718 C 141.0631,131.1037 142.495,130.5371 144.9133,130.5624 C 150.8303,132.4075 156.9019,133.4802 163.0298,134.2735 C 167.6843,133.8391 168.9738,132.9843 166.8988,131.709 C 161.8952,128.9985 158.6273,125.9986 156.1482,122.8675 C 155.4713,121.047 156.0565,120.2781 157.9036,120.5608 C 169.3251,121.0666 175.9759,118.2824 181.2912,114.577 L 164.7269,111.4563 C 179.6645,106.5608 188.8519,98.905 193.2747,88.9624 L 172.7359,97.7083 C 184.9441,86.728 187.4972,76.6821 186.6585,66.9645 L 172.9565,86.8855 C 174.6973,75.9604 174.9177,65.317 169.7442,55.1329 C 168.6363,62.4219 167.0848,70.0813 164.7429,77.3707 C 162.8987,68.6631 160.1677,60.2218 155.8556,52.2548 C 154.6028,50.4634 153.4426,50.5229 153.4855,51.878 C 153.9184,56.138 154.9066,60.0277 154.7843,64.6578 C 154.2946,66.8514 153.4346,67.3174 152.2047,66.0558 C 148.4075,62.2239 146.0911,55.4304 141.3686,53.7272 C 143.0691,61.4585 141.9353,69.4597 138.4533,77.6848 C 136.377,87.9795 140.1045,93.1456 148.6408,94.062 C 140.4281,108.5219 131.4634,113.5841 114.0882,113.668 C 104.0334,114.5008 94.3334,118.5112 86.8388,126.5325 C 85.8879,127.2622 85.122,126.7886 85.9296,125.9449 C 92.6482,118.6465 101.9369,113.7062 113.3444,112.825 C 133.0596,113.0346 140.8513,104.5723 146.9395,94.8712 C 129.1409,89.3561 140.3106,74.4935 140.8371,66.202 C 141.282,59.3282 137.9933,56.1885 133.0075,54.7459 C 137.5399,62.217 136.0872,69.0789 131.4264,76.6737 C 128.621,84.3106 128.7428,91.6816 134.0827,98.5784 C 131.0884,102.8637 122.8187,106.8561 110.9395,110.648 C 109.1259,111.1824 108.1452,111.069 108.275,109.7524 C 109.081,97.4097 106.9254,95.803 106.2506,88.8284 C 108.0091,90.6794 109.0271,92.623 111.526,94.3814 C 112.8834,87.471 111.2792,85.1881 111.1558,80.5914 L 115.3206,83.3679 C 115.7833,77.6606 113.8398,74.915 113.0994,70.6885 C 114.1483,70.4417 114.827,71.1204 115.6908,71.3363 C 116.8322,71.9533 117.2333,71.0895 116.8939,69.5779 C 116.9865,67.295 116.5854,65.012 115.6908,62.7291 C 105.6313,64.1489 100.6022,59.9224 110.4154,55.8804 L 110.4154,55.8804 z "
   style="fill:#da251d" />
   <path
   id="_75060064"
   class="fil0"
   d="M 43.9338,182.342 C 49.6284,185.2898 50.6518,185.6308 48.9554,179.2745 C 48.0814,176.7733 47.6553,176.8396 46.8461,174.3384 C 46.0998,172.2483 47.1241,171.2208 49.9191,171.2555 C 54.4607,171.9971 63.0593,170.8097 65.19,177.3216 C 67.7121,180.2465 68.1435,183.0056 71.5169,185.5646 C 79.9689,189.4483 80.6848,189.192 77.6672,183.7335 C 73.2382,178.9468 74.8241,174.9096 81.9937,176.204 C 88.7547,177.817 96.1167,176.8265 98.9603,184.9313 C 100.9621,191.4011 102.7668,194.2182 111.7659,195.3898 C 113.7141,195.5282 113.3857,194.0179 112.2855,191.5672 C 106.4432,182.7217 108.1428,180.0946 112.911,181.0911 C 118.2322,183.0944 125.4722,182.0049 130.6811,189.3101 C 133.5484,194.4716 136.7751,197.5749 144.5482,199.7217 C 148.526,200.0462 152.1823,201.3491 154.6959,207.196 C 156.8436,211.4182 156.6229,214.7061 152.6086,214.8057 C 145.5723,214.6043 139.8866,216.859 135.2616,222.7029 C 131.8527,227.3137 130.3283,233.2204 123.0018,231.3396 C 120.0034,231.0969 110.0084,229.0918 113.5129,224.8382 C 115.3302,222.2249 117.668,219.9587 120.1943,217.8179 C 116.1703,216.7723 110.4641,216.4855 109.639,217.4688 C 104.3857,221.8803 98.9069,225.2944 92.8497,227.7817 C 89.2372,229.1362 84.9188,228.1154 81.8423,225.0736 C 79.9516,223.8361 78.1923,220.9022 79.717,219.7678 C 83.7857,216.5405 87.2188,216.1993 82.3357,213.6329 C 76.3614,210.572 71.5992,211.5253 65.0894,214.5099 C 54.0503,222.7258 48.7555,218.5537 45.8196,215.8817 C 40.7723,213.3819 38.0045,208.6903 44.0736,207.2898 C 49.3755,205.0477 50.7873,204.1361 44.1375,202.3277 C 38.7728,200.3611 31.0485,200.9199 30.5226,192.9753 C 30.3659,182.6948 34.329,177.9171 38.0626,179.9245 L 43.9338,182.342 L 43.9338,182.342 z "
   style="fill:#0a0b0c" />
   <path
   id="_75084496"
   class="fil4"
   d="M 44.1338,184.41 C 50.1184,187.0819 53.0381,186.2936 50.7636,180.4478 C 50.1775,178.0986 48.9138,175.7493 48.1341,173.4 L 51.2657,172.9989 C 55.6417,173.6955 62.0501,172.7465 64.1032,178.863 C 66.5333,181.6102 67.802,185.6155 71.3936,187.1043 C 79.3555,190.7522 82.1553,190.0126 79.7934,184.8855 C 76.2939,179.3913 75.8601,176.2368 82.1708,178.229 C 88.6853,179.7442 94.3287,178.0653 97.0686,185.6779 C 98.8766,191.9905 103.189,196.3551 111.9664,197.2475 C 114.9526,197.2112 115.745,195.6263 114.3437,192.4929 C 110.6763,184.6836 108.8166,181.6338 113.4109,182.5699 C 118.5381,184.4515 124.1493,184.0103 129.083,189.9571 C 131.675,194.6388 135.296,198.6347 141.762,200.7342 C 144.5712,201.8706 149.8001,201.2649 152.2222,206.7567 C 154.2915,210.7225 154.5053,213.4782 150.6373,213.5717 C 143.8576,213.3825 138.294,216.1655 133.8376,221.6545 C 130.553,225.9853 128.9137,231.2839 121.8543,229.5172 C 119.2571,228.8562 112.4014,228.5824 115.6116,224.8243 L 124.0114,216.8999 C 118.9398,216.583 113.8682,213.6527 108.8934,216.2394 C 103.8316,220.383 98.4673,223.7561 92.6309,226.0922 C 89.1502,227.3644 85.9275,226.572 82.9632,223.7149 C 81.1415,222.5526 80.3846,221.2936 81.8538,220.2282 C 86.3713,218.1116 88.7408,215.7122 83.4387,212.3038 C 77.6822,209.4288 71.6435,209.6589 65.3711,212.4623 C 54.7344,220.1793 49.9738,217.5078 47.1451,214.9981 C 42.2818,212.6502 39.8708,209.6571 45.7187,208.3416 C 50.486,206.2358 52.1878,204.0491 47.1451,201.6851 C 42.2319,198.6739 33.2538,200.6955 32.4057,192.6514 C 32.7381,183.2307 34.6231,179.8795 37.7943,181.5573 L 44.1338,184.41 L 44.1338,184.41 z "
   style="fill:#00923f" />
   <path
   id="_75084424"
   class="fil0"
   d="M 109.582,59.2122 C 108.3789,59.4899 108.2863,60.3228 109.582,60.6005 C 115.2893,60.3228 116.184,58.7495 119.4849,57.824 C 120.3796,57.4538 119.9785,56.7134 118.5594,56.991 C 115.567,57.7314 114.5181,58.7495 109.582,59.2122 L 109.582,59.2122 z "
   style="fill:#0a0b0c" />
   <path
   id="_75084352"
   class="fil0"
   d="M 92.6702,53.2943 C 94.5069,52.6882 98.6665,54.2147 100.2879,55.0616 C 101.526,55.7083 101.5032,55.6672 100.7585,56.9325 C 99.6451,58.8242 97.9301,59.618 95.5147,58.8122 C 93.5006,58.2049 92.6295,56.4382 92.2144,54.5259 C 92.1006,54.0016 92.0895,53.4859 92.6702,53.2943 L 92.6702,53.2943 z "
   style="fill:#0a0b0c" />
   <path
   id="_75084256"
   class="fil1"
   d="M 95.5441,54.3736 C 94.9565,56.5656 97.3839,57.7641 98.8831,55.6151 C 99.5586,55.8155 99.9422,56.1834 100.034,56.7191 C 98.6241,58.5289 96.8841,58.878 95.4268,58.0534 C 94.5542,57.5598 93.7829,56.6452 93.2445,55.372 C 93.1289,55.0984 92.9184,54.6643 93.109,54.3754 C 93.5319,53.7353 94.5372,53.7974 95.5441,54.3736 L 95.5441,54.3736 z "
   style="fill:#ffffff" />
  </g>
 </g>
</svg>